<mxfile host="app.diagrams.net" modified="2021-07-23T06:24:59.176Z" agent="5.0 (Windows)" etag="1pNnkWznASjk4jvy5mme" version="14.9.1" type="github">
  <diagram name="Page-1" id="12e1b939-464a-85fe-373e-61e167be1490">
    <mxGraphModel dx="1422" dy="712" grid="1" gridSize="10" guides="1" tooltips="1" connect="1" arrows="1" fold="1" page="1" pageScale="1.5" pageWidth="1169" pageHeight="826" background="none" math="0" shadow="0">
      <root>
        <mxCell id="0" />
        <mxCell id="1" parent="0" />
        <mxCell id="60da8b9f42644d3a-2" value="" style="whiteSpace=wrap;html=1;rounded=0;shadow=0;strokeWidth=8;fontSize=20;align=center;fillColor=#b0e3e6;strokeColor=#0e8088;" parent="1" vertex="1">
          <mxGeometry x="310" y="405" width="280" height="435" as="geometry" />
        </mxCell>
        <mxCell id="60da8b9f42644d3a-3" value="Data Sources" style="text;html=1;strokeColor=none;fillColor=none;align=center;verticalAlign=middle;whiteSpace=wrap;rounded=0;shadow=0;fontSize=27;fontColor=#000000;fontStyle=1" parent="1" vertex="1">
          <mxGeometry x="316" y="425" width="280" height="60" as="geometry" />
        </mxCell>
        <mxCell id="60da8b9f42644d3a-4" value="&lt;font face=&quot;Georgia&quot;&gt;&lt;b&gt;&lt;font color=&quot;#000000&quot;&gt;Structured data&lt;/font&gt;&lt;br&gt;&lt;/b&gt;&lt;/font&gt;&lt;div&gt;&lt;font face=&quot;Georgia&quot;&gt;&lt;b&gt;&lt;font color=&quot;#000000&quot;&gt;Unstructured data&lt;/font&gt; &lt;br&gt;&lt;/b&gt;&lt;/font&gt;&lt;/div&gt;&lt;div&gt;&lt;font face=&quot;Georgia&quot;&gt;&lt;b&gt;&lt;font color=&quot;#000000&quot;&gt;Semi-structured data&lt;/font&gt;&lt;/b&gt;&lt;/font&gt;&lt;/div&gt;" style="text;html=1;strokeColor=none;fillColor=none;align=center;verticalAlign=middle;whiteSpace=wrap;rounded=0;shadow=0;fontSize=14;fontColor=#FFFFFF;" parent="1" vertex="1">
          <mxGeometry x="316" y="725" width="280" height="90" as="geometry" />
        </mxCell>
        <mxCell id="60da8b9f42644d3a-6" value="" style="line;strokeWidth=2;html=1;rounded=0;shadow=0;fontSize=27;align=center;fillColor=none;strokeColor=#FFFFFF;" parent="1" vertex="1">
          <mxGeometry x="336" y="485" width="240" height="10" as="geometry" />
        </mxCell>
        <mxCell id="60da8b9f42644d3a-7" value="" style="line;strokeWidth=2;html=1;rounded=0;shadow=0;fontSize=27;align=center;fillColor=none;strokeColor=#FFFFFF;" parent="1" vertex="1">
          <mxGeometry x="336" y="705" width="240" height="10" as="geometry" />
        </mxCell>
        <mxCell id="60da8b9f42644d3a-17" value="" style="whiteSpace=wrap;html=1;rounded=0;shadow=0;strokeWidth=8;fontSize=20;align=center;fillColor=#41acc8;strokeColor=#6c8ebf;gradientColor=#7ea6e0;" parent="1" vertex="1">
          <mxGeometry x="598" y="405" width="280" height="435" as="geometry" />
        </mxCell>
        <mxCell id="60da8b9f42644d3a-18" value="ETL" style="text;html=1;strokeColor=none;fillColor=none;align=center;verticalAlign=middle;whiteSpace=wrap;rounded=0;shadow=0;fontSize=27;fontColor=#000000;fontStyle=1" parent="1" vertex="1">
          <mxGeometry x="596" y="425" width="280" height="60" as="geometry" />
        </mxCell>
        <mxCell id="60da8b9f42644d3a-20" value="" style="line;strokeWidth=2;html=1;rounded=0;shadow=0;fontSize=27;align=center;fillColor=none;strokeColor=#FFFFFF;" parent="1" vertex="1">
          <mxGeometry x="616" y="485" width="240" height="10" as="geometry" />
        </mxCell>
        <mxCell id="60da8b9f42644d3a-21" value="" style="line;strokeWidth=2;html=1;rounded=0;shadow=0;fontSize=27;align=center;fillColor=none;strokeColor=#FFFFFF;" parent="1" vertex="1">
          <mxGeometry x="616" y="705" width="240" height="10" as="geometry" />
        </mxCell>
        <mxCell id="60da8b9f42644d3a-24" value="" style="whiteSpace=wrap;html=1;rounded=0;shadow=0;strokeWidth=8;fontSize=20;align=center;fillColor=#d5e8d4;strokeColor=#82b366;gradientColor=#97d077;" parent="1" vertex="1">
          <mxGeometry x="885" y="405" width="280" height="435" as="geometry" />
        </mxCell>
        <mxCell id="60da8b9f42644d3a-25" value="Data Storage" style="text;html=1;strokeColor=none;fillColor=none;align=center;verticalAlign=middle;whiteSpace=wrap;rounded=0;shadow=0;fontSize=27;fontColor=#000000;fontStyle=1" parent="1" vertex="1">
          <mxGeometry x="876" y="425" width="280" height="60" as="geometry" />
        </mxCell>
        <mxCell id="60da8b9f42644d3a-27" value="" style="line;strokeWidth=2;html=1;rounded=0;shadow=0;fontSize=27;align=left;fillColor=none;strokeColor=#FFFFFF;" parent="1" vertex="1">
          <mxGeometry x="905" y="485" width="240" height="10" as="geometry" />
        </mxCell>
        <mxCell id="60da8b9f42644d3a-28" value="" style="line;strokeWidth=2;html=1;rounded=0;shadow=0;fontSize=27;align=center;fillColor=none;strokeColor=#FFFFFF;" parent="1" vertex="1">
          <mxGeometry x="905" y="705" width="240" height="10" as="geometry" />
        </mxCell>
        <mxCell id="60da8b9f42644d3a-31" value="" style="whiteSpace=wrap;html=1;rounded=0;shadow=0;strokeWidth=8;fontSize=20;align=center;fillColor=#bac8d3;strokeColor=#23445d;" parent="1" vertex="1">
          <mxGeometry x="1173" y="405" width="280" height="435" as="geometry" />
        </mxCell>
        <mxCell id="60da8b9f42644d3a-32" value="Analytics" style="text;html=1;strokeColor=none;fillColor=none;align=center;verticalAlign=middle;whiteSpace=wrap;rounded=0;shadow=0;fontSize=27;fontColor=#000000;fontStyle=1" parent="1" vertex="1">
          <mxGeometry x="1156" y="425" width="280" height="60" as="geometry" />
        </mxCell>
        <mxCell id="60da8b9f42644d3a-33" value="&lt;div&gt;&lt;font color=&quot;#000000&quot;&gt;&lt;b&gt;&lt;font face=&quot;Georgia&quot;&gt;Custom chart&lt;/font&gt;&lt;/b&gt;&lt;/font&gt;&lt;/div&gt;&lt;div&gt;&lt;b&gt;&lt;font face=&quot;Georgia&quot;&gt;&lt;font color=&quot;#000000&quot;&gt;AI Analytics&lt;/font&gt;&lt;br&gt;&lt;/font&gt;&lt;/b&gt;&lt;/div&gt;" style="text;html=1;strokeColor=none;fillColor=none;align=center;verticalAlign=middle;whiteSpace=wrap;rounded=0;shadow=0;fontSize=14;fontColor=#FFFFFF;" parent="1" vertex="1">
          <mxGeometry x="1156" y="725" width="280" height="90" as="geometry" />
        </mxCell>
        <mxCell id="60da8b9f42644d3a-34" value="" style="line;strokeWidth=2;html=1;rounded=0;shadow=0;fontSize=27;align=center;fillColor=none;strokeColor=#FFFFFF;" parent="1" vertex="1">
          <mxGeometry x="1176" y="485" width="240" height="10" as="geometry" />
        </mxCell>
        <mxCell id="60da8b9f42644d3a-35" value="" style="line;strokeWidth=2;html=1;rounded=0;shadow=0;fontSize=27;align=center;fillColor=none;strokeColor=#FFFFFF;verticalAlign=middle;flipH=0;flipV=1;" parent="1" vertex="1">
          <mxGeometry x="1193.003092783505" y="705" width="240" height="10" as="geometry" />
        </mxCell>
        <mxCell id="_n4vUQhBtcx1B0NC8GrD-14" value="&lt;div&gt;&lt;font color=&quot;#000000&quot;&gt;&lt;b&gt;&lt;font face=&quot;Georgia&quot;&gt;Extraction&lt;br&gt;&lt;/font&gt;&lt;/b&gt;&lt;/font&gt;&lt;/div&gt;&lt;div&gt;&lt;font color=&quot;#000000&quot;&gt;&lt;b&gt;&lt;font face=&quot;Georgia&quot;&gt;Custom transform&lt;/font&gt;&lt;/b&gt;&lt;/font&gt;&lt;/div&gt;&lt;div&gt;&lt;font color=&quot;#000000&quot;&gt;&lt;b&gt;&lt;font face=&quot;Georgia&quot;&gt;Load&lt;/font&gt;&lt;/b&gt;&lt;/font&gt;&lt;br&gt;&lt;/div&gt;" style="text;html=1;strokeColor=none;fillColor=none;align=center;verticalAlign=middle;whiteSpace=wrap;rounded=0;shadow=0;fontSize=14;fontColor=#FFFFFF;" parent="1" vertex="1">
          <mxGeometry x="590" y="725" width="280" height="90" as="geometry" />
        </mxCell>
        <mxCell id="_n4vUQhBtcx1B0NC8GrD-25" value="Table" style="shape=table;startSize=30;container=1;collapsible=0;childLayout=tableLayout;fontStyle=1;align=center;aspect=fixed;" parent="1" vertex="1">
          <mxGeometry x="340" y="510" width="70" height="69" as="geometry" />
        </mxCell>
        <mxCell id="_n4vUQhBtcx1B0NC8GrD-26" value="" style="shape=partialRectangle;html=1;whiteSpace=wrap;collapsible=0;dropTarget=0;pointerEvents=0;fillColor=none;top=0;left=0;bottom=0;right=0;points=[[0,0.5],[1,0.5]];portConstraint=eastwest;" parent="_n4vUQhBtcx1B0NC8GrD-25" vertex="1">
          <mxGeometry y="30" width="70" height="11" as="geometry" />
        </mxCell>
        <mxCell id="_n4vUQhBtcx1B0NC8GrD-27" value="" style="shape=partialRectangle;html=1;whiteSpace=wrap;connectable=0;fillColor=none;top=0;left=0;bottom=0;right=0;overflow=hidden;" parent="_n4vUQhBtcx1B0NC8GrD-26" vertex="1">
          <mxGeometry width="22" height="11" as="geometry" />
        </mxCell>
        <mxCell id="_n4vUQhBtcx1B0NC8GrD-28" value="" style="shape=partialRectangle;html=1;whiteSpace=wrap;connectable=0;fillColor=none;top=0;left=0;bottom=0;right=0;overflow=hidden;" parent="_n4vUQhBtcx1B0NC8GrD-26" vertex="1">
          <mxGeometry x="22" width="26" height="11" as="geometry" />
        </mxCell>
        <mxCell id="_n4vUQhBtcx1B0NC8GrD-29" value="" style="shape=partialRectangle;html=1;whiteSpace=wrap;connectable=0;fillColor=none;top=0;left=0;bottom=0;right=0;overflow=hidden;" parent="_n4vUQhBtcx1B0NC8GrD-26" vertex="1">
          <mxGeometry x="48" width="22" height="11" as="geometry" />
        </mxCell>
        <mxCell id="_n4vUQhBtcx1B0NC8GrD-30" value="" style="shape=partialRectangle;html=1;whiteSpace=wrap;collapsible=0;dropTarget=0;pointerEvents=0;fillColor=none;top=0;left=0;bottom=0;right=0;points=[[0,0.5],[1,0.5]];portConstraint=eastwest;" parent="_n4vUQhBtcx1B0NC8GrD-25" vertex="1">
          <mxGeometry y="41" width="70" height="10" as="geometry" />
        </mxCell>
        <mxCell id="_n4vUQhBtcx1B0NC8GrD-31" value="" style="shape=partialRectangle;html=1;whiteSpace=wrap;connectable=0;fillColor=none;top=0;left=0;bottom=0;right=0;overflow=hidden;" parent="_n4vUQhBtcx1B0NC8GrD-30" vertex="1">
          <mxGeometry width="22" height="10" as="geometry" />
        </mxCell>
        <mxCell id="_n4vUQhBtcx1B0NC8GrD-32" value="" style="shape=partialRectangle;html=1;whiteSpace=wrap;connectable=0;fillColor=none;top=0;left=0;bottom=0;right=0;overflow=hidden;" parent="_n4vUQhBtcx1B0NC8GrD-30" vertex="1">
          <mxGeometry x="22" width="26" height="10" as="geometry" />
        </mxCell>
        <mxCell id="_n4vUQhBtcx1B0NC8GrD-33" value="" style="shape=partialRectangle;html=1;whiteSpace=wrap;connectable=0;fillColor=none;top=0;left=0;bottom=0;right=0;overflow=hidden;" parent="_n4vUQhBtcx1B0NC8GrD-30" vertex="1">
          <mxGeometry x="48" width="22" height="10" as="geometry" />
        </mxCell>
        <mxCell id="_n4vUQhBtcx1B0NC8GrD-34" value="" style="shape=partialRectangle;html=1;whiteSpace=wrap;collapsible=0;dropTarget=0;pointerEvents=0;fillColor=none;top=0;left=0;bottom=0;right=0;points=[[0,0.5],[1,0.5]];portConstraint=eastwest;" parent="_n4vUQhBtcx1B0NC8GrD-25" vertex="1">
          <mxGeometry y="51" width="70" height="9" as="geometry" />
        </mxCell>
        <mxCell id="_n4vUQhBtcx1B0NC8GrD-35" value="" style="shape=partialRectangle;html=1;whiteSpace=wrap;connectable=0;fillColor=none;top=0;left=0;bottom=0;right=0;overflow=hidden;" parent="_n4vUQhBtcx1B0NC8GrD-34" vertex="1">
          <mxGeometry width="22" height="9" as="geometry" />
        </mxCell>
        <mxCell id="_n4vUQhBtcx1B0NC8GrD-36" value="" style="shape=partialRectangle;html=1;whiteSpace=wrap;connectable=0;fillColor=none;top=0;left=0;bottom=0;right=0;overflow=hidden;" parent="_n4vUQhBtcx1B0NC8GrD-34" vertex="1">
          <mxGeometry x="22" width="26" height="9" as="geometry" />
        </mxCell>
        <mxCell id="_n4vUQhBtcx1B0NC8GrD-37" value="" style="shape=partialRectangle;html=1;whiteSpace=wrap;connectable=0;fillColor=none;top=0;left=0;bottom=0;right=0;overflow=hidden;" parent="_n4vUQhBtcx1B0NC8GrD-34" vertex="1">
          <mxGeometry x="48" width="22" height="9" as="geometry" />
        </mxCell>
        <mxCell id="hcTz_RfjsQjMArmlq-sm-9" style="shape=partialRectangle;html=1;whiteSpace=wrap;collapsible=0;dropTarget=0;pointerEvents=0;fillColor=none;top=0;left=0;bottom=0;right=0;points=[[0,0.5],[1,0.5]];portConstraint=eastwest;" parent="_n4vUQhBtcx1B0NC8GrD-25" vertex="1">
          <mxGeometry y="60" width="70" height="9" as="geometry" />
        </mxCell>
        <mxCell id="hcTz_RfjsQjMArmlq-sm-10" style="shape=partialRectangle;html=1;whiteSpace=wrap;connectable=0;fillColor=none;top=0;left=0;bottom=0;right=0;overflow=hidden;" parent="hcTz_RfjsQjMArmlq-sm-9" vertex="1">
          <mxGeometry width="22" height="9" as="geometry" />
        </mxCell>
        <mxCell id="hcTz_RfjsQjMArmlq-sm-11" style="shape=partialRectangle;html=1;whiteSpace=wrap;connectable=0;fillColor=none;top=0;left=0;bottom=0;right=0;overflow=hidden;" parent="hcTz_RfjsQjMArmlq-sm-9" vertex="1">
          <mxGeometry x="22" width="26" height="9" as="geometry" />
        </mxCell>
        <mxCell id="hcTz_RfjsQjMArmlq-sm-12" style="shape=partialRectangle;html=1;whiteSpace=wrap;connectable=0;fillColor=none;top=0;left=0;bottom=0;right=0;overflow=hidden;" parent="hcTz_RfjsQjMArmlq-sm-9" vertex="1">
          <mxGeometry x="48" width="22" height="9" as="geometry" />
        </mxCell>
        <mxCell id="_n4vUQhBtcx1B0NC8GrD-38" value="" style="shape=document;whiteSpace=wrap;html=1;boundedLbl=1;aspect=fixed;" parent="1" vertex="1">
          <mxGeometry x="500" y="520" width="60" height="55" as="geometry" />
        </mxCell>
        <mxCell id="_n4vUQhBtcx1B0NC8GrD-39" value="" style="shape=image;html=1;verticalAlign=top;verticalLabelPosition=bottom;labelBackgroundColor=#ffffff;imageAspect=0;aspect=fixed;image=https://cdn0.iconfinder.com/data/icons/file-61/20/file_json-128.png" parent="1" vertex="1">
          <mxGeometry x="418" y="510" width="70" height="70" as="geometry" />
        </mxCell>
        <mxCell id="_n4vUQhBtcx1B0NC8GrD-40" value="" style="shape=image;html=1;verticalAlign=top;verticalLabelPosition=bottom;labelBackgroundColor=#ffffff;imageAspect=0;aspect=fixed;image=https://cdn4.iconfinder.com/data/icons/documents-42/512/document_file_paper_page-26-128.png" parent="1" vertex="1">
          <mxGeometry x="336" y="583.75" width="85" height="85" as="geometry" />
        </mxCell>
        <mxCell id="_n4vUQhBtcx1B0NC8GrD-41" value="" style="shape=image;html=1;verticalAlign=top;verticalLabelPosition=bottom;labelBackgroundColor=#ffffff;imageAspect=0;aspect=fixed;image=https://cdn3.iconfinder.com/data/icons/logos-brands-3/24/logo_brand_brands_logos_excel-128.png" parent="1" vertex="1">
          <mxGeometry x="428" y="598.25" width="56" height="56" as="geometry" />
        </mxCell>
        <mxCell id="_n4vUQhBtcx1B0NC8GrD-42" value="" style="shape=image;html=1;verticalAlign=top;verticalLabelPosition=bottom;labelBackgroundColor=#ffffff;imageAspect=0;aspect=fixed;image=https://cdn4.iconfinder.com/data/icons/social-media-logos-6/512/68-word-128.png" parent="1" vertex="1">
          <mxGeometry x="500" y="592.5" width="67.5" height="67.5" as="geometry" />
        </mxCell>
        <mxCell id="_n4vUQhBtcx1B0NC8GrD-50" value="" style="shape=image;html=1;verticalAlign=top;verticalLabelPosition=bottom;labelBackgroundColor=#ffffff;imageAspect=0;aspect=fixed;image=https://cdn1.iconfinder.com/data/icons/customicondesign-mini-deepcolour-png/48/Wheels.png;fillColor=#666666;" parent="1" vertex="1">
          <mxGeometry x="675.62" y="545.5" width="108.75" height="108.75" as="geometry" />
        </mxCell>
        <mxCell id="_n4vUQhBtcx1B0NC8GrD-60" value="" style="html=1;verticalLabelPosition=bottom;align=center;labelBackgroundColor=#ffffff;verticalAlign=top;strokeWidth=2;shadow=0;dashed=0;shape=mxgraph.ios7.icons.data;fillColor=#808080;strokeColor=#666666;" parent="1" vertex="1">
          <mxGeometry x="924" y="565" width="50" height="55" as="geometry" />
        </mxCell>
        <mxCell id="_n4vUQhBtcx1B0NC8GrD-77" value="&lt;div&gt;&lt;font color=&quot;#000000&quot;&gt;&lt;b&gt;&lt;font face=&quot;Georgia&quot;&gt;Traditional database&lt;br&gt;&lt;/font&gt;&lt;/b&gt;&lt;/font&gt;&lt;/div&gt;&lt;div&gt;&lt;font color=&quot;#000000&quot;&gt;&lt;b&gt;&lt;font face=&quot;Georgia&quot;&gt;Nosql&lt;/font&gt;&lt;/b&gt;&lt;/font&gt;&lt;/div&gt;&lt;div&gt;&lt;font color=&quot;#000000&quot;&gt;&lt;b&gt;&lt;font face=&quot;Georgia&quot;&gt;Hadoop ...&lt;/font&gt;&lt;/b&gt;&lt;/font&gt;&lt;br&gt;&lt;/div&gt;" style="text;html=1;strokeColor=none;fillColor=none;align=center;verticalAlign=middle;whiteSpace=wrap;rounded=0;shadow=0;fontSize=14;fontColor=#FFFFFF;" parent="1" vertex="1">
          <mxGeometry x="890" y="725" width="270" height="90" as="geometry" />
        </mxCell>
        <mxCell id="hcTz_RfjsQjMArmlq-sm-2" value="" style="outlineConnect=0;fontColor=#232F3E;strokeColor=#232F3E;dashed=0;verticalLabelPosition=bottom;verticalAlign=top;align=center;html=1;fontSize=12;fontStyle=0;aspect=fixed;shape=mxgraph.aws4.resourceIcon;resIcon=mxgraph.aws4.dense_storage_node;sketch=0;shadow=0;opacity=60;gradientColor=#ffffff;fillColor=#B3B3B3;" parent="1" vertex="1">
          <mxGeometry x="1062" y="565" width="50" height="50" as="geometry" />
        </mxCell>
        <mxCell id="hcTz_RfjsQjMArmlq-sm-3" value="" style="shape=image;html=1;verticalAlign=top;verticalLabelPosition=bottom;labelBackgroundColor=#ffffff;imageAspect=0;aspect=fixed;image=https://cdn1.iconfinder.com/data/icons/100-basic-for-user-interface/32/73-files-128.png;fillColor=#E6E6E6;" parent="1" vertex="1">
          <mxGeometry x="993" y="565" width="50" height="50" as="geometry" />
        </mxCell>
        <mxCell id="hcTz_RfjsQjMArmlq-sm-7" value="" style="group" parent="1" vertex="1" connectable="0">
          <mxGeometry x="1193" y="508.5" width="226" height="50" as="geometry" />
        </mxCell>
        <mxCell id="_n4vUQhBtcx1B0NC8GrD-67" value="" style="shape=image;html=1;verticalAlign=top;verticalLabelPosition=bottom;labelBackgroundColor=#ffffff;imageAspect=0;aspect=fixed;image=https://cdn2.iconfinder.com/data/icons/essential-web-4/50/barchart-graph-stat-statistics-summary-128.png;strokeColor=#666666;fillColor=#999999;" parent="hcTz_RfjsQjMArmlq-sm-7" vertex="1">
          <mxGeometry width="50" height="50" as="geometry" />
        </mxCell>
        <mxCell id="_n4vUQhBtcx1B0NC8GrD-68" value="" style="shape=image;html=1;verticalAlign=top;verticalLabelPosition=bottom;labelBackgroundColor=#ffffff;imageAspect=0;aspect=fixed;image=https://cdn1.iconfinder.com/data/icons/free-education-set/33/linechart-128.png;strokeColor=#666666;fillColor=#999999;" parent="hcTz_RfjsQjMArmlq-sm-7" vertex="1">
          <mxGeometry x="86" width="50" height="50" as="geometry" />
        </mxCell>
        <mxCell id="_n4vUQhBtcx1B0NC8GrD-70" value="" style="shape=image;html=1;verticalAlign=top;verticalLabelPosition=bottom;labelBackgroundColor=#ffffff;imageAspect=0;aspect=fixed;image=https://cdn4.iconfinder.com/data/icons/success-filloutline/64/chart-analytics-stocks-increasing-growth-128.png;strokeColor=#666666;fillColor=#999999;" parent="hcTz_RfjsQjMArmlq-sm-7" vertex="1">
          <mxGeometry x="176" width="50" height="50" as="geometry" />
        </mxCell>
        <mxCell id="hcTz_RfjsQjMArmlq-sm-8" value="" style="group" parent="1" vertex="1" connectable="0">
          <mxGeometry x="1195.38" y="586" width="223.6199999999999" height="50" as="geometry" />
        </mxCell>
        <mxCell id="_n4vUQhBtcx1B0NC8GrD-71" value="" style="shape=image;html=1;verticalAlign=top;verticalLabelPosition=bottom;labelBackgroundColor=#ffffff;imageAspect=0;aspect=fixed;image=https://cdn2.iconfinder.com/data/icons/app-user-interface-6/48/Dashboard-128.png;strokeColor=#666666;fillColor=#999999;" parent="hcTz_RfjsQjMArmlq-sm-8" vertex="1">
          <mxGeometry width="50" height="50" as="geometry" />
        </mxCell>
        <mxCell id="_n4vUQhBtcx1B0NC8GrD-72" value="" style="shape=image;html=1;verticalAlign=top;verticalLabelPosition=bottom;labelBackgroundColor=#ffffff;imageAspect=0;aspect=fixed;image=https://cdn2.iconfinder.com/data/icons/maternity-and-pregnancy-2/512/366_analytics_processing_dashboard_data_stats_data_management_organization-128.png;strokeColor=#666666;fillColor=#999999;" parent="hcTz_RfjsQjMArmlq-sm-8" vertex="1">
          <mxGeometry x="83.75" width="50" height="50" as="geometry" />
        </mxCell>
        <mxCell id="_n4vUQhBtcx1B0NC8GrD-76" value="" style="shape=image;html=1;verticalAlign=top;verticalLabelPosition=bottom;labelBackgroundColor=#ffffff;imageAspect=0;aspect=fixed;image=https://cdn2.iconfinder.com/data/icons/artificial-intelligence-6/64/ArtificialIntelligence12-128.png;strokeColor=#666666;fillColor=#999999;" parent="hcTz_RfjsQjMArmlq-sm-8" vertex="1">
          <mxGeometry x="173.6199999999999" width="50" height="50" as="geometry" />
        </mxCell>
        <mxCell id="hcTz_RfjsQjMArmlq-sm-31" value="" style="shape=image;html=1;verticalAlign=top;verticalLabelPosition=bottom;labelBackgroundColor=#ffffff;imageAspect=0;aspect=fixed;image=https://cdn4.iconfinder.com/data/icons/documents-42/512/document_file_paper_page-26-128.png" parent="1" vertex="1">
          <mxGeometry x="336" y="583.75" width="85" height="85" as="geometry" />
        </mxCell>
        <mxCell id="hcTz_RfjsQjMArmlq-sm-32" value="" style="shape=image;html=1;verticalAlign=top;verticalLabelPosition=bottom;labelBackgroundColor=#ffffff;imageAspect=0;aspect=fixed;image=https://cdn3.iconfinder.com/data/icons/logos-brands-3/24/logo_brand_brands_logos_excel-128.png" parent="1" vertex="1">
          <mxGeometry x="428" y="598.25" width="56" height="56" as="geometry" />
        </mxCell>
        <mxCell id="hcTz_RfjsQjMArmlq-sm-43" value="" style="group" parent="1" vertex="1" connectable="0">
          <mxGeometry x="310" y="880" width="1132" height="120" as="geometry" />
        </mxCell>
        <mxCell id="hcTz_RfjsQjMArmlq-sm-35" value="" style="group" parent="hcTz_RfjsQjMArmlq-sm-43" vertex="1" connectable="0">
          <mxGeometry width="280" height="120" as="geometry" />
        </mxCell>
        <mxCell id="_n4vUQhBtcx1B0NC8GrD-43" value="" style="whiteSpace=wrap;html=1;rounded=0;shadow=0;strokeWidth=8;fontSize=20;align=center;fillColor=#b0e3e6;strokeColor=#0e8088;" parent="hcTz_RfjsQjMArmlq-sm-35" vertex="1">
          <mxGeometry width="279.01754385964915" height="120" as="geometry" />
        </mxCell>
        <mxCell id="_n4vUQhBtcx1B0NC8GrD-44" value="&lt;div&gt;&lt;b&gt;&lt;font face=&quot;Tahoma&quot;&gt;Streaming Data&lt;/font&gt;&lt;/b&gt;&lt;/div&gt;&lt;div&gt;&lt;b&gt;&lt;font face=&quot;Tahoma&quot;&gt;&lt;br&gt;&lt;/font&gt;&lt;/b&gt;&lt;/div&gt;" style="text;html=1;strokeColor=none;fillColor=none;align=center;verticalAlign=middle;whiteSpace=wrap;rounded=0;shadow=0;fontSize=14;fontColor=#000000;" parent="hcTz_RfjsQjMArmlq-sm-35" vertex="1">
          <mxGeometry x="80.49228070175438" y="91" width="120" height="40" as="geometry" />
        </mxCell>
        <mxCell id="hcTz_RfjsQjMArmlq-sm-33" value="" style="group" parent="hcTz_RfjsQjMArmlq-sm-35" vertex="1" connectable="0">
          <mxGeometry x="22.596491228070175" y="20" width="235.78947368421055" height="60" as="geometry" />
        </mxCell>
        <mxCell id="_n4vUQhBtcx1B0NC8GrD-46" value="" style="pointerEvents=1;shadow=0;dashed=0;html=1;strokeColor=none;labelPosition=center;verticalLabelPosition=bottom;verticalAlign=top;align=center;fillColor=#505050;shape=mxgraph.mscae.intune.device_health" parent="hcTz_RfjsQjMArmlq-sm-33" vertex="1">
          <mxGeometry x="21.6140350877193" y="10" width="53.78947368421053" height="35.75" as="geometry" />
        </mxCell>
        <mxCell id="_n4vUQhBtcx1B0NC8GrD-48" value="" style="points=[[0.03,0.03,0],[0.5,0,0],[0.97,0.03,0],[1,0.4,0],[0.97,0.745,0],[0.5,1,0],[0.03,0.745,0],[0,0.4,0]];verticalLabelPosition=bottom;html=1;verticalAlign=top;aspect=fixed;align=center;pointerEvents=1;shape=mxgraph.cisco19.workstation;strokeColor=none;fillColor=#808080;" parent="hcTz_RfjsQjMArmlq-sm-33" vertex="1">
          <mxGeometry x="101.19298245614036" y="10" width="49.12280701754387" height="39.29824561403509" as="geometry" />
        </mxCell>
        <mxCell id="_n4vUQhBtcx1B0NC8GrD-49" value="" style="shape=mxgraph.signs.healthcare.cath_lab;html=1;pointerEvents=1;strokeColor=none;verticalLabelPosition=bottom;verticalAlign=top;align=center;fillColor=#666666;" parent="hcTz_RfjsQjMArmlq-sm-33" vertex="1">
          <mxGeometry x="168.98245614035088" width="53.05263157894737" height="50" as="geometry" />
        </mxCell>
        <mxCell id="_n4vUQhBtcx1B0NC8GrD-45" value="" style="line;strokeWidth=2;html=1;rounded=0;shadow=0;fontSize=27;align=center;fillColor=none;strokeColor=#FFFFFF;" parent="hcTz_RfjsQjMArmlq-sm-35" vertex="1">
          <mxGeometry x="21.616491228070192" y="81" width="235.78947368421055" height="10" as="geometry" />
        </mxCell>
        <mxCell id="hcTz_RfjsQjMArmlq-sm-36" value="" style="group" parent="hcTz_RfjsQjMArmlq-sm-43" vertex="1" connectable="0">
          <mxGeometry x="275" width="280" height="120" as="geometry" />
        </mxCell>
        <mxCell id="_n4vUQhBtcx1B0NC8GrD-51" value="" style="whiteSpace=wrap;html=1;rounded=0;shadow=0;strokeWidth=8;fontSize=20;align=center;fillColor=#41acc8;strokeColor=#6c8ebf;gradientColor=#7ea6e0;" parent="hcTz_RfjsQjMArmlq-sm-36" vertex="1">
          <mxGeometry x="12.009999999999991" width="280" height="120" as="geometry" />
        </mxCell>
        <mxCell id="_n4vUQhBtcx1B0NC8GrD-52" value="&lt;font face=&quot;Georgia&quot;&gt;&lt;b&gt;Stream orchestration&lt;/b&gt;&lt;/font&gt;" style="text;html=1;strokeColor=none;fillColor=none;align=center;verticalAlign=middle;whiteSpace=wrap;rounded=0;shadow=0;fontSize=14;fontColor=#000000;" parent="hcTz_RfjsQjMArmlq-sm-36" vertex="1">
          <mxGeometry x="55" y="91" width="170" height="20" as="geometry" />
        </mxCell>
        <mxCell id="_n4vUQhBtcx1B0NC8GrD-53" value="" style="line;strokeWidth=2;html=1;rounded=0;shadow=0;fontSize=27;align=center;fillColor=none;strokeColor=#FFFFFF;" parent="hcTz_RfjsQjMArmlq-sm-36" vertex="1">
          <mxGeometry x="20" y="79" width="240" height="10" as="geometry" />
        </mxCell>
        <mxCell id="_n4vUQhBtcx1B0NC8GrD-54" value="" style="outlineConnect=0;dashed=0;verticalLabelPosition=bottom;verticalAlign=top;align=center;html=1;shape=mxgraph.aws3.vpc_nat_gateway;gradientColor=none;fillColor=#808080;" parent="hcTz_RfjsQjMArmlq-sm-36" vertex="1">
          <mxGeometry x="72.00999999999999" y="20" width="54.5" height="50" as="geometry" />
        </mxCell>
        <mxCell id="_n4vUQhBtcx1B0NC8GrD-55" value="" style="shape=mxgraph.cisco.misc.ip_dsl;html=1;pointerEvents=1;dashed=0;strokeColor=#ffffff;strokeWidth=2;verticalLabelPosition=bottom;verticalAlign=top;align=center;outlineConnect=0;fillColor=#808080;" parent="hcTz_RfjsQjMArmlq-sm-36" vertex="1">
          <mxGeometry x="172.01" y="20" width="60" height="50" as="geometry" />
        </mxCell>
        <mxCell id="hcTz_RfjsQjMArmlq-sm-40" value="" style="group" parent="hcTz_RfjsQjMArmlq-sm-43" vertex="1" connectable="0">
          <mxGeometry x="571" width="280" height="120" as="geometry" />
        </mxCell>
        <mxCell id="_n4vUQhBtcx1B0NC8GrD-56" value="" style="whiteSpace=wrap;html=1;rounded=0;shadow=0;strokeWidth=8;fontSize=20;align=center;fillColor=#d5e8d4;strokeColor=#82b366;gradientColor=#97d077;" parent="hcTz_RfjsQjMArmlq-sm-40" vertex="1">
          <mxGeometry x="3.9857651245551597" width="280" height="120" as="geometry" />
        </mxCell>
        <mxCell id="_n4vUQhBtcx1B0NC8GrD-61" value="&lt;b&gt;&lt;font face=&quot;Georgia&quot;&gt;Storage&lt;/font&gt;&lt;/b&gt;" style="text;html=1;strokeColor=none;fillColor=none;align=center;verticalAlign=middle;whiteSpace=wrap;rounded=0;shadow=0;fontSize=14;fontColor=#000000;" parent="hcTz_RfjsQjMArmlq-sm-40" vertex="1">
          <mxGeometry x="102.51" y="91.00061855670103" width="70" height="20" as="geometry" />
        </mxCell>
        <mxCell id="_n4vUQhBtcx1B0NC8GrD-62" value="" style="line;strokeWidth=2;html=1;rounded=0;shadow=0;fontSize=27;align=center;fillColor=none;strokeColor=#FFFFFF;" parent="hcTz_RfjsQjMArmlq-sm-40" vertex="1">
          <mxGeometry x="26.405943060498224" y="77.41123711340205" width="239.14590747330962" height="9.896907216494844" as="geometry" />
        </mxCell>
        <mxCell id="hcTz_RfjsQjMArmlq-sm-5" value="" style="shape=image;html=1;verticalAlign=top;verticalLabelPosition=bottom;labelBackgroundColor=#ffffff;imageAspect=0;aspect=fixed;image=https://cdn2.iconfinder.com/data/icons/maternity-and-pregnancy-2/512/370_database_data_architecture_infographics_monitoring_data_management_organization-128.png;shadow=0;sketch=0;fillColor=#B3B3B3;gradientColor=#ffffff;opacity=60;" parent="hcTz_RfjsQjMArmlq-sm-40" vertex="1">
          <mxGeometry x="98.79971530249111" width="77.4142422130095" height="77.4142422130095" as="geometry" />
        </mxCell>
        <mxCell id="hcTz_RfjsQjMArmlq-sm-41" value="" style="group" parent="hcTz_RfjsQjMArmlq-sm-43" vertex="1" connectable="0">
          <mxGeometry x="852" width="280" height="120" as="geometry" />
        </mxCell>
        <mxCell id="_n4vUQhBtcx1B0NC8GrD-57" value="" style="whiteSpace=wrap;html=1;rounded=0;shadow=0;strokeWidth=8;fontSize=20;align=center;fillColor=#bac8d3;strokeColor=#23445d;" parent="hcTz_RfjsQjMArmlq-sm-41" vertex="1">
          <mxGeometry x="10.848797250859107" width="280" height="120" as="geometry" />
        </mxCell>
        <mxCell id="_n4vUQhBtcx1B0NC8GrD-63" value="&lt;font face=&quot;Georgia&quot;&gt;&lt;b&gt;Streaming Analytics&lt;/b&gt;&lt;/font&gt;" style="text;html=1;strokeColor=none;fillColor=none;align=center;verticalAlign=middle;whiteSpace=wrap;rounded=0;shadow=0;fontSize=14;fontColor=#000000;" parent="hcTz_RfjsQjMArmlq-sm-41" vertex="1">
          <mxGeometry x="60" y="86.82176470588237" width="160" height="20" as="geometry" />
        </mxCell>
        <mxCell id="_n4vUQhBtcx1B0NC8GrD-64" value="" style="line;strokeWidth=2;html=1;rounded=0;shadow=0;fontSize=27;align=center;fillColor=none;strokeColor=#FFFFFF;" parent="hcTz_RfjsQjMArmlq-sm-41" vertex="1">
          <mxGeometry x="32.50257731958746" y="77.40823529411765" width="236.701030927835" height="9.411764705882355" as="geometry" />
        </mxCell>
        <mxCell id="hcTz_RfjsQjMArmlq-sm-4" value="" style="shadow=0;dashed=0;html=1;strokeColor=none;fillColor=#505050;labelPosition=center;verticalLabelPosition=bottom;verticalAlign=top;outlineConnect=0;align=center;shape=mxgraph.office.databases.monitoring_store;sketch=0;opacity=60;" parent="hcTz_RfjsQjMArmlq-sm-41" vertex="1">
          <mxGeometry x="113.41924398625429" y="16.235294117647054" width="57.20274914089347" height="54.58823529411765" as="geometry" />
        </mxCell>
      </root>
    </mxGraphModel>
  </diagram>
</mxfile>
